<?xml version="1.0" encoding="UTF-8"?> <svg xmlns="http://www.w3.org/2000/svg" width="90.382" height="117.876" viewBox="0 0 90.382 117.876"><g id="Group_604" data-name="Group 604" transform="translate(-3102.962 -449.451)"><path id="Path_48772" data-name="Path 48772" d="M3206.312,535.5V466.977h-38.723l-3.8,3.539v-3.539h-39.3l-4.009,3.608v69.159a40.562,40.562,0,0,0,69.244,28.681c.216-.216.43-.435.641-.656l.126-.113a41.391,41.391,0,0,0,3.943-3.469,40.3,40.3,0,0,0,11.88-28.682" transform="translate(-15.243 -15.252)" fill="#1d1d1b"></path><path id="Path_48773" data-name="Path 48773" d="M3145.8,567.327a42.835,42.835,0,0,1-42.836-42.836V454.32l5.41-4.869h84.972v70.8a42.556,42.556,0,0,1-12.546,30.29,43.884,43.884,0,0,1-4.094,3.608q-.305.317-.615.63a42.558,42.558,0,0,1-30.291,12.546m-40.562-111.995v69.159a40.562,40.562,0,0,0,69.244,28.682c.216-.216.429-.436.64-.655l.126-.114a41.2,41.2,0,0,0,3.943-3.469,40.3,40.3,0,0,0,11.881-28.682V451.725h-38.723l-3.8,3.539v-3.539h-39.3Z" fill="#fff"></path><path id="Path_48774" data-name="Path 48774" d="M3208.122,475.787v81.787a3.109,3.109,0,1,1-6.217,0V475.787h-36.311v67.385a39.419,39.419,0,0,0,78.838,0V475.787Z" transform="translate(-54.506 -22.919)" fill="#fce300"></path><path id="Path_48775" data-name="Path 48775" d="M3206.738,940.85v-4.673h19.646c1.058,0,1.569-.375,1.569-1.126,0-.716-.511-1.092-1.569-1.092h-19.646v-4.672h19.475c4.229,0,6.276,1.978,6.276,5.253v1.125c0,3.308-2.047,5.184-6.276,5.184Z" transform="translate(-90.311 -417.578)" fill="#1d1d1b"></path><path id="Path_48776" data-name="Path 48776" d="M3232.117,832.614v4.536h-25.375v-7.163c0-2.763,1.5-4.161,4.229-4.161h4.059a3.426,3.426,0,0,1,3.411,2.013,3.075,3.075,0,0,1,3-1.944h8.629a3.553,3.553,0,0,0,1.876-.375h.17v4.536a3.025,3.025,0,0,1-1.944.409h-7.4c-1.194,0-1.5.273-1.5,1.194v.955Zm-15.041,0v-.887c0-.921-.341-1.262-1.535-1.262H3212.1c-1.092,0-1.433.205-1.433,1.126v1.023Z" transform="translate(-90.315 -327.274)" fill="#1d1d1b"></path><path id="Path_48777" data-name="Path 48777" d="M3206.738,735.332v-6.856c0-3.036,1.16-4.4,4.536-4.4h3.377a3.547,3.547,0,0,1,3.547,2.149c.375-1.3,1.262-2.524,3.99-2.524h4.23c3.99,0,5.7,1.4,5.7,4.161v7.469Zm3.888-4.537h6.037v-1.023c0-.785-.307-1.228-1.5-1.228h-3.172c-.921,0-1.364.307-1.364,1.159Zm10.13,0h7.333v-1.262c0-.785-.205-1.16-1.671-1.16h-4.127c-1.057,0-1.535.273-1.535,1.33Z" transform="translate(-90.311 -238.666)" fill="#1d1d1b"></path><path id="Path_48778" data-name="Path 48778" d="M3227.855,627.678v2.729l4.263.409v4.025l-25.375-3.206v-5.389l25.375-3.445v4.4Zm-4.365,2.285v-1.841l-8.7.955Z" transform="translate(-90.315 -150.857)" fill="#1d1d1b"></path><path id="Path_48779" data-name="Path 48779" d="M3206.738,531.025l12.961-3.1h-12.961V523.9h25.376v3.854l-13.915,3.513h13.915v4.025h-25.376Z" transform="translate(-90.311 -64.786)" fill="#1d1d1b"></path><path id="Path_48780" data-name="Path 48780" d="M3537.028,738.278h4.468v4.945h5.525v-3.888h4.57v3.888h6.242v-5.184h4.57v9.72h-25.375Z" transform="translate(-377.746 -251.144)" fill="#1d1d1b"></path><path id="Path_48781" data-name="Path 48781" d="M3558.145,640.3v2.729l4.263.409v4.025l-25.375-3.206v-5.389l25.375-3.445v4.4Zm-4.365,2.285v-1.841l-8.7.955Z" transform="translate(-377.75 -161.846)" fill="#1d1d1b"></path><path id="Path_48782" data-name="Path 48782" d="M3537.028,552.557h4.468v3.24H3562.4v4.536H3541.5v3.24h-4.468Z" transform="translate(-377.746 -89.728)" fill="#1d1d1b"></path><rect id="Rectangle_566" data-name="Rectangle 566" width="4.911" height="4.059" transform="translate(3179.746 459.048)" fill="#1d1d1b"></rect></g></svg> 